<svg width="32" height="32" viewBox="0 0 32 32" fill="none" xmlns="http://www.w3.org/2000/svg">
<g id="vuesax/bold/man">
<g id="man">
<path id="Vector" d="M29.5868 2.94683C29.4935 2.70683 29.2935 2.50683 29.0535 2.4135C28.9202 2.36016 28.8002 2.3335 28.6668 2.3335H20.0002C19.4535 2.3335 19.0002 2.78683 19.0002 3.3335C19.0002 3.88016 19.4535 4.3335 20.0002 4.3335H26.2535L20.2402 10.3602H20.2268C18.4402 8.88016 16.1602 8.00016 13.6668 8.00016C7.96016 8.00016 3.3335 12.6268 3.3335 18.3335C3.3335 24.0402 7.96016 28.6668 13.6668 28.6668C19.3735 28.6668 24.0002 24.0402 24.0002 18.3335C24.0002 15.8402 23.1202 13.5602 21.6402 11.7735L27.6668 5.74683V12.0002C27.6668 12.5468 28.1202 13.0002 28.6668 13.0002C29.2135 13.0002 29.6668 12.5468 29.6668 12.0002V3.3335C29.6668 3.20016 29.6402 3.08016 29.5868 2.94683Z" fill="white"/>
</g>
</g>
</svg>
