<svg width="32" height="32" viewBox="0 0 32 32" fill="none" xmlns="http://www.w3.org/2000/svg">
<g id="vuesax/bold/woman">
<g id="woman">
<path id="Vector" d="M25.3332 11.9998C25.3332 6.83984 21.1598 2.6665 15.9998 2.6665C10.8398 2.6665 6.6665 6.83984 6.6665 11.9998C6.6665 16.8265 10.3198 20.7865 14.9998 21.2798V24.3332H11.9998C11.4532 24.3332 10.9998 24.7865 10.9998 25.3332C10.9998 25.8798 11.4532 26.3332 11.9998 26.3332H14.9998V29.3332C14.9998 29.8798 15.4532 30.3332 15.9998 30.3332C16.5465 30.3332 16.9998 29.8798 16.9998 29.3332V26.3332H19.9998C20.5465 26.3332 20.9998 25.8798 20.9998 25.3332C20.9998 24.7865 20.5465 24.3332 19.9998 24.3332H16.9998V21.2798C21.6798 20.7865 25.3332 16.8265 25.3332 11.9998Z" fill="white"/>
</g>
</g>
</svg>
