<svg xmlns="http://www.w3.org/2000/svg" width="1000" height="1000" viewBox="0 0 1000 1000">
  <metadata><?xpacket begin="﻿" id="W5M0MpCehiHzreSzNTczkc9d"?>
<x:xmpmeta xmlns:x="adobe:ns:meta/" x:xmptk="Adobe XMP Core 5.6-c142 79.160924, 2017/07/13-01:06:39        ">
   <rdf:RDF xmlns:rdf="http://www.w3.org/1999/02/22-rdf-syntax-ns#">
      <rdf:Description rdf:about=""/>
   </rdf:RDF>
</x:xmpmeta>
                                                                                                    
                                                                                                    
                                                                                                    
                                                                                                    
                                                                                                    
                                                                                                    
                                                                                                    
                                                                                                    
                                                                                                    
                                                                                                    
                                                                                                    
                                                                                                    
                                                                                                    
                                                                                                    
                                                                                                    
                                                                                                    
                                                                                                    
                                                                                                    
                                                                                                    
                                                                                                    
                           
<?xpacket end="w"?></metadata>
<defs>
    <style>
      .cls-1 {
        fill: #06001e;
        stroke: #000;
        stroke-width: 1px;
        fill-rule: evenodd;
      }
    </style>
  </defs>
  <path id="fertilizer" class="cls-1" d="M209.081,33.917c15.993-.129,26.193,2.259,35.259,8.805,9.487,6.849,12.593,21.119,28.4,21.523,6.132-3.731,16.594-1.139,24.485-2.935,15.4-3.5,34.335-2.278,49.949-5.87H358.93c25.621-5.657,56.809.175,83.25-5.87h35.258c13.5-2.942,49.233-3.087,62.682,0h23.506l65.62,2.935L707.6,60.332c7.854,0.421,22.755,5.5,28.4,2.935,10.422-7.082,16.811-19.5,28.4-25.437,33.3-17.052,64.6,14.754,70.517,39.133,8.07,33.257-29.3,43.093-30.361,61.635,6.184,9.711,4.6,26.136,7.835,38.154,7.258,26.954,8.9,58.094,15.671,86.094Q829.534,277.52,831,292.2c6.284,27.363,3.489,59.676,9.794,88.05,2.329,10.482-.135,21.873,1.959,31.307q0.489,24.945.979,49.895c2.453,16.656,3.557,60.167,0,76.309v26.415c-0.349,17.087-.389,38.85-3.917,54.787q-0.49,12.228-.98,24.458l-8.815,79.245q-6.365,40.107-12.732,80.223c-3.267,12.771-4.2,26.591-7.835,40.112-2.03,7.56-4.551,15.136-4.9,24.458,12.653,8.089,26.457,25.07,30.361,42.068,2.3,10-2.058,19.937-4.9,25.437-10.333,20.022-39.4,43.528-68.558,25.436-8.93-5.541-20.73-16.657-26.444-25.436-24.692,8.006-57.86,4.041-84.228,9.783l-24.486.978c-36.4,7.847-77.133,1.212-117.528,4.892-12.752,1.162-28.021.021-41.135,0-11.628-.019-26.286,1.178-36.238-0.978L374.6,947.678c-14.851-3.231-31.344-.465-47.012-3.913l-62.682-7.827c-8,12.482-25.357,26.469-42.114,30.328-12.792,2.946-24.046-3.6-30.361-7.826-18.619-12.465-37.771-39.787-19.588-67.505,4.413-6.729,17.721-20.065,24.485-24.458-3.593-10.47-3.733-21.706-6.856-33.264-10.7-39.6-11.805-84.289-21.547-126.2-4.05-17.425-2.1-36.059-5.877-52.83-3.71-16.467-.411-34.18-3.917-49.895V587.652c-3.356-15.436,1.6-35.359-1.959-51.851-2.871-13.3-2.938-58.164,0-71.418V432.1c1.078-4.845-.367-13.517.979-19.567,5.416-24.325,1.563-52.844,6.856-76.31q0.49-9.782.98-19.566,7.835-54.293,15.67-108.595c3.745-14.636,4.707-30.658,8.815-45.982,2.444-9.117,5.485-18.6,5.876-29.349-18.906-12.264-42.384-44.566-23.5-73.375,4.936-7.534,15.345-17.341,23.5-21.523C200.333,35.789,205.46,36.29,209.081,33.917Zm2.939,30.328c-1.051.735-.926,0.588-2.939,0.978C205.912,70.1,200.494,75.7,196.349,79.9v8.8c1.642,1.631,2.329,4.184,3.918,5.87,7.065,7.5,25.639,20.447,28.4,30.328,1.59,5.684-1.8,12.713-2.939,16.632-3.571,12.306-4.663,25.422-7.835,37.176q-7.834,45.976-15.67,91.963-1.959,19.075-3.918,38.155c-5.067,22.048-2.731,48.577-7.835,71.418-2.2,9.847.007,20.539-1.959,29.35q-0.489,23.967-.979,47.938c-2.658,12.3-.978,29.992-0.98,44.025,0,13.1-1.542,29.715.98,41.09,3.532,15.936-1.248,33.5,1.958,47.938q0.49,14.675.98,29.35c5.113,22.911,1.5,48.108,6.856,71.418,4.249,18.509,3.2,38.559,7.835,57.722,4,16.518,4.409,34.6,8.814,51.851,5.491,21.506,9.746,45.51,14.692,66.527,2.264,9.622-4.916,14.68-8.815,18.588-8.561,8.581-23.427,18.027-23.506,34.242,5.25,5.4,10.27,10.409,15.671,15.653h8.814l6.856-4.892c8.141-7.925,17.3-23.3,29.382-26.415,6.728-1.733,28.648,3.394,35.259,4.892l67.579,6.848c15.054,3.267,32.416,1.6,47.011,2.935h20.568c10.461,2.241,25.529-1.519,37.217.979,13.7,2.928,40.169,2.953,53.867,0H555.79c18.964-2.852,41.231-1.133,59.744-3.914,23.124-3.473,46.376-1.218,67.579-5.87l18.609-.978c6.684-1.489,35.954-6.943,43.093-4.892,18.55,5.33,19.538,31.155,44.074,31.307,5.4-5.244,10.42-10.258,15.67-15.653v-8.8l-4.9-6.849c-8.228-8.431-24.1-17.9-27.423-30.328-1.8-6.707,2.581-14.816,3.917-19.566,3.187-11.326,4.023-22.737,6.856-33.264q8.324-49.89,16.65-99.789,1.468-15.163,2.938-30.329c5.056-22.128,2.729-48.565,7.835-71.418,2.2-9.847-.007-20.538,1.959-29.35q0.49-23.967.98-47.938c2.657-12.3.977-29.992,0.979-44.025,0-13.1,1.542-29.715-.979-41.09-3.533-15.935,1.247-33.5-1.959-47.938V393.943q-3.428-38.64-6.856-77.288c-4.8-21.014-3.6-43.992-8.815-65.548-3.609-14.917-3.834-31.279-7.835-46.96-5.974-23.417-10.49-49.265-15.67-72.4-2.13-9.511,4.947-13.735,8.814-17.61,8.56-8.576,23.43-18.031,23.506-34.241-7.206-7.7-8.911-15.83-24.485-15.653-11.325,9.676-22.947,19.667-33.3,30.328-18.225.514-43.019-2.506-61.7-6.848-18.105-4.208-37.386-.894-54.847-4.892L569.5,79.9H546.976c-13.516-2.948-61.989-3.083-75.414,0l-54.847.978-109.693,8.8c-6.711,1.506-44.789,7.883-50.929,5.87C237.937,89.6,236.321,64.324,212.02,64.245ZM512.7,488.841V603.306c33.812,1.76,61.628,19.559,76.393,41.089,6.746,9.836,13.395,19.14,9.794,34.242l-6.856,5.87c-9.417,4.114-38.4.978-50.929,0.978H450.994c-16.5,0-36.522,1.085-49.949-1.956-4.173-5.563-6.967-6.923-6.856-17.61,5.012-6.474,6.127-15.987,10.773-22.5,14.931-20.938,44.4-37.763,77.373-40.111V408.618C409.5,411.281,374.65,393.3,344.239,350.9c-9.645-13.447-26.414-31.687-21.547-52.83,19.59-12.911,62.792-13.538,89.126-5.87,42.618,12.412,65.332,33.8,86.188,67.505,5.139,8.306,12.044,17.8,14.691,28.372v32.285h0.979c4.835-7.3,12.5-12.473,19.588-17.61,19.139-13.872,56.136-34.719,93.043-26.415,17.491,3.935,46.662.727,51.909,15.653,4.226,5.589.426,12.32-1.959,16.632-6.588,11.912-13.924,21.1-21.547,31.306-20.834,27.9-44.336,40.519-84.229,49.9-9.01,2.118-27.449,4.526-39.176,1.957ZM359.91,317.633c-1.614,9.091,12.646,19.826,17.629,26.415,20.036,26.5,49.437,35.474,96.961,35.22v-1.957c-5.973-5.879-9.632-14.788-14.691-21.523C439.38,328.59,408.245,317.681,359.91,317.633Zm243.871,88.05c-1.931,1.168-4.821.234-7.835,0.978-7.954,1.964-17.122,3.653-24.485,6.848-20.688,8.978-39.433,27.6-50.929,45.982,48.843,6.306,68.373-2.706,95.981-23.48,8.609-6.477,21.345-17.052,24.486-28.372h-4.9C629.717,403.559,613.293,405.562,603.781,405.683ZM486.253,632.656c-4.116,2.457-10.7,1.425-15.671,2.935-12.327,3.744-27.887,9.734-34.279,19.566H558.729v-0.978C535.272,638.989,525.845,632.927,486.253,632.656Z"/>
</svg>
