<svg xmlns="http://www.w3.org/2000/svg" width="1000" height="1000" viewBox="0 0 1000 1000">
  <metadata><?xpacket begin="﻿" id="W5M0MpCehiHzreSzNTczkc9d"?>
<x:xmpmeta xmlns:x="adobe:ns:meta/" x:xmptk="Adobe XMP Core 5.6-c142 79.160924, 2017/07/13-01:06:39        ">
   <rdf:RDF xmlns:rdf="http://www.w3.org/1999/02/22-rdf-syntax-ns#">
      <rdf:Description rdf:about=""/>
   </rdf:RDF>
</x:xmpmeta>
                                                                                                    
                                                                                                    
                                                                                                    
                                                                                                    
                                                                                                    
                                                                                                    
                                                                                                    
                                                                                                    
                                                                                                    
                                                                                                    
                                                                                                    
                                                                                                    
                                                                                                    
                                                                                                    
                                                                                                    
                                                                                                    
                                                                                                    
                                                                                                    
                                                                                                    
                                                                                                    
                           
<?xpacket end="w"?></metadata>
<defs>
    <style>
      .cls-1 {
        fill: #06001e;
        stroke: #000;
        stroke-width: 1px;
        fill-rule: evenodd;
      }
    </style>
  </defs>
  <path class="cls-1" d="M424.805,32c33.115-.336,60.7,22.314,80.5,36.563,52.524,37.808,84.432,95.893,110.811,159.831l19.862,61.634c0.841-1.067.371-.286,1.046-2.09,5.293-5.695,7.994-13.376,12.544-19.848,9.182-13.057,21.55-26.122,34.5-35.518,5.26-3.816,14.9-12.759,24.044-6.267,23.166,6.919,7.946,43.027,13.59,67.9q2.613,20.892,5.227,41.786c7.449,28.761,12.147,57.287,21.953,83.572,24.834,66.563,63.434,117.113,84.677,186.991,9.088,29.894,9.982,84.292,2.09,115.955-3.447,13.833-3.108,25.856-7.317,38.652-19.569,59.483-46.845,112.38-91.994,146.25-3.305,2.479-6.035,6.975-9.409,9.4-25.14,18.084-49.947,30.545-84.676,39.7-9.223,2.43-31.637,8.01-43.907,5.223l-21.953-4.178c-16.4-6.848-31.871-27.063-21.953-50.143,7.573-17.623,26.14-25.761,40.77-36.563,10.29-7.6,20.877-19.8,28.226-30.294,16.9-24.142,38.688-80.127,27.18-124.313-7.857-30.167-19.2-55.5-30.316-81.482-6.371-14.882-11.628-30.455-16.727-45.964-1.76-5.356-.909-14.984-5.227-17.759v2.089c-4.753,6.014-5.2,14.156-8.363,21.937-8.539,21.039-18.82,57.038-11.5,88.795,0.934,4.052,1.351,10.237,3.136,14.625,1.116,2.743,4.837,4.011,6.273,6.268,4.762,7.489,1.746,15.364,0,22.982a71.443,71.443,0,0,0-10.454,8.357c-23.3,1.562-31.109-13.576-44.952-24.026-42.188-31.849-56.456-82.926-56.451-157.742,0-14.912-.945-30.417-1.045-43.875-0.123-16.437,1-34.443-2.091-48.053-2.492-10.99-.49-22.8-6.272-30.295v2.089c-5.04,7.66-4.781,19.523-8.364,28.206-7.008,16.986-14.5,35.026-24.043,50.143-20.287,32.136-45.681,59.891-65.86,92.973-18.5,30.33-25.289,65.3-34.5,105.509-2.806,12.254-.244,39.666,2.091,49.1,1.851,7.479.894,13.011,3.136,19.848,11.328,34.535,32.446,71.281,58.542,90.884,14.092,10.586,32.527,20.277,41.815,35.518,3.111,5.1,4.076,14.932,2.091,21.938-6.641,23.445-19.833,32.867-43.906,38.651-11.873,2.853-28.41-.73-36.589-3.134-31.708-9.319-49.875-18.07-73.177-34.473C240.511,896.019,206.874,851.7,183.32,794.589c-9.887-23.976-12.119-48.361-18.817-76.259-4.678-19.488-9.5-69.5-4.181-92.973V612.821l7.318-48.053c7.913-27.887,15.253-54.709,26.134-79.393,22.6-51.255,59.63-91.2,90.949-133.714,36.354-49.345,74.049-96.98,106.63-150.429,10.229-16.782,17.255-38.142,23-58.5,2.631-9.327,2.067-19.873,4.182-29.25,2.392-10.608-.782-33.949-3.136-42.83-1.57-5.919-6.782-14.947-4.182-24.027C413.491,38.678,419.655,36.907,424.805,32Zm33.452,54.321c4.885,23.045-.621,52.641-6.272,69.991-3.836,11.779-4.828,21.619-9.408,32.384-15.931,37.444-38.616,69.073-60.633,100.286-21,29.775-42.421,57.656-63.769,86.7-5.825,7.927-14.015,15.04-19.862,22.983-26.294,35.716-53.41,71.954-72.132,114.91-9.873,22.655-14.247,48.388-20.907,74.17-2.8,10.835-1.806,23.016-4.182,33.429v17.759c-3.76,17.529-.605,50.2,3.136,65.812,6.41,26.757,7.322,50.318,16.726,73.125,18.916,45.874,44.946,80.681,79.45,110.732,17.612,15.339,42.036,28.071,66.905,35.518,7.9,2.366,27.629,4.732,31.361-2.089-5.691-2.015-9.116-7.228-13.59-10.447-18.2-13.1-32.9-26.718-46-44.919-15.711-21.84-29.251-44.262-38.679-73.125-11.438-35.016-10.549-89.509,0-124.313,11.914-39.307,23.356-71.468,42.861-102.375,19.269-30.533,43.71-56.524,62.723-87.75,9.987-16.4,14.087-34.9,19.862-55.366,1.454-5.151,4.631-18.359,2.091-26.116-2.182-6.666-9.527-9.866-11.5-17.759-2.614-10.459,5.3-19.747,11.5-21.937,5.914-4.477,16.84-1.206,21.953,1.044,16.919,7.447,28.532,14.26,38.68,28.206,12.558,17.257,19.007,35.643,25.089,60.589,5.433,22.283,3.14,57.272,3.136,83.571,0,9.8-.755,22.221,1.046,30.295v32.384c1.684,7.577.959,16.947,3.136,25.071,3.325,12.412,8.6,23,13.59,33.429h1.045V646.25c1.482-2.523.171-6.672,1.046-10.446q3.657-17.758,7.317-35.518c7.127-21.961,14.724-44.6,26.135-62.679,5.512-8.732,13.791-15.974,19.862-24.027,10.384-13.772,17.1-29.333,41.816-26.116a135,135,0,0,0,10.454,11.491c1.2,23.762-8.689,48.459,0,75.215,14.786,45.531,34.13,81.862,47.042,130.58,4.969,18.748,7.5,52.752,2.091,74.17-3.875,15.332-6.7,31.117-12.545,44.919-11.51,27.171-32.29,59.7-54.36,76.259-8.346,6.264-21.293,11.25-27.18,19.848H618.2c3.627-2.21,8.742-.788,13.59-2.089,10.855-2.912,21.466-6.111,31.361-10.446,34.279-15.018,65.218-42.942,85.722-72.081,31.827-45.228,68.769-147.2,42.861-225.642-12.073-36.555-29.483-69.782-48.088-100.286-12.868-21.1-21.76-46.633-31.361-69.991-11.821-28.758-17.055-60.827-25.09-92.974q-3.135-24.546-6.272-49.1H679.88v1.045c-11.768,12.089-20.662,34.669-25.09,53.277-3.3,13.865,6.39,25.688-1.045,36.562-3.61,5.279-16.732,11.216-24.044,6.268-13.838-4.308-13.491-19.409-17.772-33.428-7.548-24.722-11.577-51.382-19.862-76.259-21.1-63.344-45.673-120.864-87.813-162.965C491.893,109.489,476.4,92.081,458.257,86.321Z"/>
</svg>
