<svg xmlns="http://www.w3.org/2000/svg" width="1000" height="1000" viewBox="0 0 1000 1000">
  <metadata><?xpacket begin="﻿" id="W5M0MpCehiHzreSzNTczkc9d"?>
<x:xmpmeta xmlns:x="adobe:ns:meta/" x:xmptk="Adobe XMP Core 5.6-c142 79.160924, 2017/07/13-01:06:39        ">
   <rdf:RDF xmlns:rdf="http://www.w3.org/1999/02/22-rdf-syntax-ns#">
      <rdf:Description rdf:about=""/>
   </rdf:RDF>
</x:xmpmeta>
                                                                                                    
                                                                                                    
                                                                                                    
                                                                                                    
                                                                                                    
                                                                                                    
                                                                                                    
                                                                                                    
                                                                                                    
                                                                                                    
                                                                                                    
                                                                                                    
                                                                                                    
                                                                                                    
                                                                                                    
                                                                                                    
                                                                                                    
                                                                                                    
                                                                                                    
                                                                                                    
                           
<?xpacket end="w"?></metadata>
<defs>
    <style>
      .cls-1 {
        fill: #06001e;
        stroke: #000;
        stroke-width: 1px;
        fill-rule: evenodd;
      }
    </style>
  </defs>
  <path class="cls-1" d="M583.846,29c6.055-.035,8.189,1.133,12.382,2.253l25.887,49.573c13.169,29.709,23.163,61.258,33.767,93.513,14.719,44.772,21.48,136.243,5.628,184.774-9.408,28.8-20.185,56.266-36.018,78.866-4.144,5.916-10.367,11.184-14.632,16.9-8.289,11.111-17.52,22.858-29.265,30.421l14.633,47.32c13.987-3.14,26.082-11,42.771-7.887,6.893,11.883,9.247,26.088,14.632,40.56,6.965,18.719,13.388,37.489,21.385,56.333,32.124,75.688,60.9,154.985,92.3,230.967,15.418,37.308,10.867,80.488-18.009,101.4-34.545,25.018-86.7,20.51-110.3-11.266-15.946-21.467-17.463-52.513-25.888-82.247-15.4-54.36-28.726-111.863-40.52-167.874H428.52v2.254c-7.959,12.066-8.83,38.7-13.507,54.08-12.557,41.3-21.041,85.945-32.641,127.313-8.415,30.009-10.55,55.631-29.265,74.36-31.551,31.575-92.662,24.79-117.058-9.013-22.17-30.721-12.149-71.194,1.126-102.527,30.516-72.029,57.952-147.466,87.793-219.7,8.394-20.317,14.961-40.452,22.512-60.84,3.422-9.242,3.642-21.561,9-29.293,8.172-11.785,32.821.545,45.022,3.38v-2.254c3.732-5,12.776-36.918,13.507-45.066C393.85,471.3,369,419.429,379,378.267c6.661-27.422,11.357-56.438,18.009-85.627,2.459-10.792,1.821-22.562,3.377-32.673v-20.28c2-9.54,2.341-38.918,0-49.573-6.318-28.748-6.912-56.765-16.884-81.121-4.817-11.765-10.24-25.15-16.883-36.053-3.557-5.838-9.08-9.577-10.13-18.027-1.07-2.179.3-5.552,1.126-9.013,3.414-1.7,3.982-2.865,9-3.38,7.6-2.788,39.182,14.45,47.273,18.027,44.872,19.835,82.532,45.428,114.807,77.74,7.291,7.3,15.773,13.57,21.386,22.533h1.125v-1.127c6.832-7.9,6.911-22.419,10.13-33.8,7.711-27.255,8.2-63.181,15.758-92.386A33.032,33.032,0,0,0,583.846,29ZM397,78.573c10.6,23.609,17.5,49.6,24.762,77.74,3.212,12.439.447,23.919,3.377,37.181,1.881,8.515,4.382,33.227,2.251,42.813-1.478,6.649.663,17.876-1.126,25.913q-2.812,24.222-5.627,48.447h1.125c14.39-18.939,67.138-36.125,103.551-25.913,28.647,8.033,58.608,25.216,70.911,49.573h1.125v-5.633q-2.814-18.588-5.628-37.18c-5.238-18.771-10.6-37.114-18.009-54.08-25.406-58.16-73.126-99.619-124.936-131.821C433.491,96.111,416.081,83.539,397,78.573ZM597.353,83.08c-3.719,21.747-5.779,44.3-12.381,64.22-4.361,13.155-12.13,25.562-15.758,38.307,10.362,8.325,16.134,24.906,22.511,37.18,10.585,20.373,18.029,43.905,24.763,68.727,2.833,10.445.854,19.2,3.376,30.42,2.622,11.664,5.483,34.061,2.251,48.446-2.677,11.915-3.66,27.48-4.5,39.434h1.126V407.56c8.837-9.381,12.04-25.074,16.883-38.306,26.768-73.138,9.275-172.246-15.758-233.221C613.429,120.359,607.95,94.078,597.353,83.08ZM485.923,306.16c-7.757,4.851-20,4.335-28.139,7.887-23.775,10.376-43.366,33.962-51.776,59.713-18.835,57.677,21.976,102.993,59.655,117.174,12.069,4.542,31.472,9.676,48.4,5.633,32.971-7.876,59.794-26.826,72.036-55.207,28.263-65.524-17.513-120.732-68.659-134.073C508.408,304.931,496.506,306.064,485.923,306.16Zm9,40.56c36.234,0.2,71.012,35.315,54.027,75.487-7.327,17.33-22.677,29.16-42.771,33.8-37.078,8.563-74.9-36.581-59.655-73.233A61.791,61.791,0,0,1,479.17,350.1C483.861,348.177,490.762,349.251,494.927,346.72Zm1.126,22.534c-2.4,1.489-6,.964-9,2.253-8.374,3.592-16.583,13.225-19.135,22.533-5.714,20.845,15.429,43.295,34.892,38.307C538.32,423.246,537.641,371.069,496.053,369.254Zm-70.91,172.38c10.949,1.108,35.207,7.617,38.269,16.9,2.138,6.483-7.13,26.534-9,31.547-5.98,15.989-7.358,31.979-12.381,49.573-2.625,9.2-6.192,17.9-6.753,29.293H565.837c-0.328-11.914-4.8-23.749-7.878-33.8-4.434-14.5-5.138-28.17-10.13-41.686-4.646-12.578-10.89-24-7.879-38.307,1.848-1.111,2.93-3.624,4.5-4.507,7.484-4.2,28.856-4.725,32.641-11.266-7.527-10.257-5.6-28.442-13.507-38.307-4.538,4.455-10.866,5.92-16.883,9.013-37.817,19.444-77.846,8.842-110.3-6.76Q430.771,522.479,425.143,541.634Zm10.13,27.04c-14.922-1.7-29.593-7.646-43.9-12.393-4.457-1.48-11.772-6.1-15.758-4.507-3.474,4.473-5.889,13.852-6.753,20.28l59.655,18.027v-1.127h1.125Q432.459,578.816,435.273,568.674ZM565.837,569.8c0.6,6.133,3.363,16.174,6.754,20.28,1.207,0.847,1.064.677,3.376,1.126,3.89-2.862,9.58-2.641,14.633-4.506,13.023-4.807,27.529-10.1,41.645-13.52V569.8q-3.376-9.014-6.753-18.027C605.359,555.987,586.956,567.664,565.837,569.8ZM359.861,594.587c-33.793,91.012-70.24,182.248-106.928,271.527-16.126,39.241,3.38,68.663,34.892,78.867,25.818,8.36,48.99-7.183,58.529-22.533,5.559-8.945,5.513-18.846,9-30.42,7.3-24.212,10.781-50.009,18.009-75.487,13-45.805,20.485-93.806,33.767-140.834,5.374-19.026,13.523-40.5,14.632-61.966h-2.251c-4.958-3.387-11.93-3.385-18.009-5.634C388.793,603.4,374.126,596.726,359.861,594.587Zm278.012,0c-12.275,9.089-43.137,13.075-58.529,20.28,6.149,18.408,7.9,37.863,13.507,57.46,19.21,67.117,30.3,139.281,50.65,206.181,10.235,33.649,7.879,53.163,40.52,65.346,6.606,2.466,16.831,5.041,25.888,2.254,23.96-7.374,55.324-29.4,43.9-66.474-4.251-13.791-9.968-27.745-15.757-41.686C716.713,786.57,697.8,733.685,676.142,681.341c-11.252-27.2-27.127-57.85-34.892-86.754h-3.377Z"/>
</svg>
