<svg xmlns="http://www.w3.org/2000/svg" width="1000" height="1000" viewBox="0 0 1000 1000">
  <metadata><?xpacket begin="﻿" id="W5M0MpCehiHzreSzNTczkc9d"?>
<x:xmpmeta xmlns:x="adobe:ns:meta/" x:xmptk="Adobe XMP Core 5.6-c142 79.160924, 2017/07/13-01:06:39        ">
   <rdf:RDF xmlns:rdf="http://www.w3.org/1999/02/22-rdf-syntax-ns#">
      <rdf:Description rdf:about=""/>
   </rdf:RDF>
</x:xmpmeta>
                                                                                                    
                                                                                                    
                                                                                                    
                                                                                                    
                                                                                                    
                                                                                                    
                                                                                                    
                                                                                                    
                                                                                                    
                                                                                                    
                                                                                                    
                                                                                                    
                                                                                                    
                                                                                                    
                                                                                                    
                                                                                                    
                                                                                                    
                                                                                                    
                                                                                                    
                                                                                                    
                           
<?xpacket end="w"?></metadata>
<defs>
    <style>
      .cls-1 {
        fill: #06001e;
        stroke: #000;
        stroke-width: 1px;
        fill-rule: evenodd;
      }
    </style>
  </defs>
  <path id="water" class="cls-1" d="M655.346,32c15.966,1.233,21.725,12.527,29.087,22.309,4.655,6.185,11.835,11.241,16.483,17.459,13.27,17.754,25.9,34.952,38.782,53.347,23.982,34.239,44.965,70.916,62.052,112.514,5.316,12.939,6.708,25.43,10.665,39.768,7.357,26.653,9.935,67.621.97,95.055-5.963,18.246-14.083,35.99-24.239,50.437-19.795,28.158-50.181,49.337-86.291,61.107-9.763,3.182-20.829,3.519-31.026,5.82-23.247,5.245-59.9-5.779-73.687-11.64-52.1-22.145-81.978-56.779-97.925-115.424-4.671-17.177-6.806-48.978-1.939-68.866,4.628-18.914,7.534-38.22,14.543-55.287,21.023-51.19,47.709-93.372,77.565-134.823,9.893-13.735,20-26.342,30.056-39.768,2.867-3.826,7.8-6.87,10.665-10.669,4.217-5.588,8.88-13.452,14.544-17.459C648.368,33.957,652.611,33.922,655.346,32Zm0.97,48.5c-3.67,7.409-10.806,12.1-15.513,18.429-11.151,15-23.256,29.435-33.935,44.618-33.7,47.911-55.917,93.536-71.747,160.041-3.936,16.535-1,41.483,2.909,54.318,12.566,41.282,33.171,67.489,70.778,83.415,11.991,5.078,38.1,15.236,58.173,10.67,8.643-1.966,17.892-2.125,26.178-4.85,28.6-9.4,52.687-27.541,67.87-50.437,6.4-9.658,11.715-22.35,15.513-33.949,6.859-20.949,4.895-56.644-.97-76.626-4.065-13.849-5.442-26.147-10.665-38.8-13.93-33.738-31.489-63.783-50.417-92.145-10.3-15.426-20.194-29.858-31.026-44.617-3.508-4.779-9.063-8.862-12.605-13.579C666.927,91.748,662.86,82.855,656.316,80.5ZM294.67,165.853c21.045,0.129,29.636,17.878,38.782,30.068,10.553,14.064,24.437,26.5,34.9,40.738,12.476,16.974,23.656,33.962,35.874,51.407C445.15,346.5,473.874,405,494.4,484.966c12.233,47.659-.134,114.395-18.421,144.522-25.962,42.769-58.871,74.061-107.622,94.085-16.416,6.743-35.138,7.319-54.3,11.639-8.249,1.861-23.319.557-30.057-.97l-22.3-1.939a277.33,277.33,0,0,1-40.722-13.58C162.09,693,126.225,651.094,106.575,585.84,99.443,562.158,95.759,521,102.7,492.725c5.982-24.374,9.508-48.155,18.422-69.836,20.877-50.775,45.073-97.451,74.656-139.672,9.018-12.871,19.861-25.273,29.087-37.828C245.868,216.8,267,187.819,294.67,165.853Zm3.878,47.527c-4.766,8.273-12.876,13.938-18.422,21.339-13.248,17.679-28.043,34.433-40.721,52.377-32.493,45.988-60.451,94.49-83.383,150.342-7.363,17.934-10.563,38.484-15.513,58.2-6.537,26.035-3.138,63.084,3.879,84.386,17.133,52.019,45.624,84.229,94.047,104.754,13.416,5.687,49.258,17.705,71.748,12.609,16.033-3.632,31.8-4.027,45.569-9.7,43.463-17.9,75.9-48.966,94.047-92.145,13.93-33.14,12.811-87.661,1.94-123.184-4.434-14.488-6.134-27.418-11.635-40.737-23.209-56.193-53.315-103.605-86.291-149.372-10.036-13.93-19.861-27.081-30.057-40.738-2.576-3.452-7.109-6.254-9.695-9.7C309.4,225.6,305.024,217.68,298.548,213.38Zm413.033,39.768c25.479-.4,24.139,18.081,29.087,37.828,10.5,41.893-4.786,81.115-26.178,102.815-5.576,5.655-20.4,24.508-32.965,15.519C674.7,407.4,666.017,397.8,669.89,386.031c2.931-8.9,13.331-11.693,18.422-18.429,6.933-9.175,12.986-19.447,16.482-32.008,5.789-20.8-2.93-43.492-6.787-58.2-1.939-7.393,1.708-13,2.909-17.459C704.082,258.011,708.6,255.631,711.581,253.148ZM391.626,441.318c7.823-.064,13.116.573,17.452,3.88,5.814,4.434,6.208,14.423,8.726,22.309a194.811,194.811,0,0,1,9.7,61.106v15.52c-9.392,42.116-18.206,64.769-43.631,90.2-8.536,8.54-14.917,19.423-32,19.4-2.764-2.181-6.96-2.586-9.7-4.85-2.117-1.752-2.928-5.748-4.848-7.76-1.653-23.518,16.85-25.954,27.148-39.767a147.376,147.376,0,0,0,22.3-43.648c5.805-18.263,3.96-49.146-.97-66.927-2.5-9.006-6.8-19.3-8.726-28.128q0.971-5.818,1.939-11.639c2.338-1.77,3.468-5.188,5.818-6.79C386.973,442.773,389.742,442.851,391.626,441.318ZM739.7,510.184c15.753,3.306,21.95,14.447,30.057,25.219,4.37,5.807,11.147,10.649,15.513,16.489,11.6,15.519,22.675,30.52,33.934,46.558,23.367,33.283,45.162,68.624,62.052,108.634,6.382,15.117,8.586,29.8,13.574,46.557,7.49,25.17,10.613,68.044,1.939,95.055-5.044,15.711-11.17,31.567-19.391,44.618-19.989,31.734-52.19,56.167-91.139,68.866-9.762,3.184-20.829,3.519-31.026,5.82H740.668a151.033,151.033,0,0,1-62.052-12.609c-45.609-19.477-73.62-50.256-91.139-97.965-5.652-15.393-12.52-41.7-7.756-63.047,2.524-11.315.224-20.682,2.908-31.038,26.613-102.657,85.243-188.811,151.252-252.187C736.518,511.161,738.339,511.117,739.7,510.184Zm0,48.5c-12.146,19.345-30.388,35.579-43.63,54.317-34.5,48.812-61.214,97.918-77.565,165.861-2.394,9.95-3.124,25.481-.969,34.918,2.436,10.673.851,18.9,3.878,28.129,12.865,39.225,37.811,64.036,74.656,79.535,11.273,4.742,37.476,13.023,56.235,8.73,22.44-5.136,40.957-9.536,57.2-20.369,3.765-2.51,7.066-7.011,10.665-9.7,4.642-3.468,10.147-7.073,13.574-11.64,10.006-13.336,19.48-28.144,25.208-45.587,8.076-24.591,5.067-61.424-1.939-84.386-3.177-10.414-3.8-19.524-7.756-29.1-17.056-41.312-38.193-76.7-62.052-110.574-6.723-9.546-12.517-18.762-19.391-28.129-4.73-6.445-11.7-12.06-16.483-18.429C747.631,567.328,744.888,562.087,739.7,558.682Zm54.3,172.651c24.985-.4,24.124,16.542,29.087,35.888,7.663,29.871,2.154,65.624-10.666,86.325-4.242,6.851-10.8,12.267-15.513,18.429-4.85,6.341-20.292,24.611-32.965,15.519-5.851-1.819-6.943-5.97-10.665-9.7-1.776-24.628,11.3-22.108,21.331-35.888,6-8.245,10.773-18.931,13.573-30.069,5.255-20.9-3.817-42.128-7.756-57.227-1.725-6.61,1.813-11.284,2.909-15.519C786.469,737.1,791.247,734,793.994,731.333Z"/>
</svg>
